<?xml version="1.0" encoding="UTF-8"?>
<svg version="1.1" viewBox="0 0 3168 2448" width="1280" height="1280" xmlns="http://www.w3.org/2000/svg">
<path transform="translate(2e3 729)" d="m0 0h7l3 1 31 1 50 4 35 5 26 5 32 8 33 11 20 9 4 4-14 49-11 37-5 19-3 2-17-8-24-9-26-8-30-7-30-5-28-3-23-1-12-1h-29l-39 3-29 4-28 6-25 7-20 7-24 10-20 10-22 13-20 14-10 8-15 13-21 21-7 8-12 15-9 13-10 15-6 10-6 11-10 21-10 25-10 30-6 24-6 30-4 28-2 25-1 25-1 21 1 13 1 26 3 31 6 36 6 25 6 21 9 26 10 23 8 16 10 18 9 14 13 18 12 14 9 10 17 17 11 9 15 12 18 12 17 10 15 8 28 12 30 10 28 7 27 5 26 3 28 2h42l32-2 41-5 36-7 28-7 32-11 18-8h5l23 88 3 11v6l-24 10-30 10-31 8-29 6-38 6-37 4-30 2-31 1-19 1-7-1-29-1-36-3-33-5-34-7-32-9-29-10-24-10-25-12-22-12-22-14-14-10-13-10-14-12-10-9-8-7-14-14-7-8-12-14-13-17-12-17-15-24-14-27-10-21-11-28-10-31-7-27-7-34-6-43-3-38v-70l3-36 4-30 6-33 9-36 13-40 12-29 13-28 13-23 13-21 14-20 11-14 9-11 9-10 7-8 27-27 8-7 13-11 19-14 14-10 21-13 16-9 23-12 22-10 29-11 28-9 36-9 26-5 27-4 30-3 43-2z"/>
<path transform="translate(1195,747)" d="m0 0h127l3 2v594l-1 122-2 26-4 31-6 31-7 26-9 26-8 18-13 25-12 18-11 14-11 12-11 11-11 9-14 10-15 9-17 9-25 10-20 6-21 5-23 4-30 3h-60l-31-3-29-5-30-7-21-7-2-4 12-65 7-38 4-1 23 7 22 5 25 4 10 1h54l22-3 21-5 19-7 15-8 14-10 13-12 10-13 10-16 8-17 9-27 5-20 4-24 3-27 1-16 1-30 1-672z" fill="#010101"/>
<path transform="translate(879,1863)" d="m0 0h1411l2 3v70l-2 2h-1413l-1-2v-71z" fill="#030303"/>
</svg>
